<svg width="800" height="800" viewBox="0 0 800 800" fill="none" xmlns="http://www.w3.org/2000/svg">
<rect width="800" height="800" fill="#1E1E1E"/>
<path d="M618.313 623.938C602.938 673.656 501.656 700.094 402.688 700.625C303.75 700.094 202.5 673.656 187.063 623.938C177.875 594.313 206.531 580.188 218.563 504C229.875 432.906 205.75 418.75 211.094 337.875C214.531 285.312 217.969 233.594 254.625 188.719C307.125 124.469 389.656 122.719 400.313 122.594C409.688 122.594 495.844 122.844 550.688 188.719C599.656 247.531 593.313 324 594.219 337.875C599.563 418.75 575.469 432.906 586.75 504C598.844 580.156 627.5 594.313 618.313 623.938Z" fill="#312727"/>
<path d="M690.281 641.719C654.872 683.895 610.654 717.804 560.737 741.062C510.819 764.32 456.414 776.363 401.344 776.344C321.094 776.344 253.938 748.438 204.844 718.219C182.908 704.749 162.185 689.4 142.906 672.344C133.022 663.689 123.681 654.431 114.937 644.625C114.187 643.813 113.375 642.781 112.344 641.5C135.559 618.392 161.911 598.667 190.625 582.906C217.779 567.925 246.546 556.079 276.375 547.594C317.813 584.26 359.26 620.906 400.719 657.531L526.188 547.594C527.094 547.875 528.031 548.063 528.906 548.344C529.164 548.471 529.437 548.565 529.719 548.625C558.192 557.024 585.675 568.476 611.688 582.781C640.523 598.64 666.98 618.48 690.281 641.719Z" fill="#AA392D"/>
<path d="M526.219 547.594L400.75 657.531C359.25 620.885 317.802 584.24 276.406 547.594L279.531 546.719L282.156 545.969C282.906 545.75 283.813 545.562 284.688 545.281H284.875C288 544.469 291.813 543.438 295.969 542.5C330.927 572.437 365.875 602.406 400.812 632.406C436.229 602.365 471.583 572.396 506.875 542.5C516.031 544.687 523.25 546.875 526.219 547.594Z" fill="#7C211A"/>
<path d="M506.75 542.5C471.333 572.438 435.979 602.406 400.688 632.406C365.729 602.469 330.781 572.5 295.844 542.5C300.312 541.406 305 540.406 309.75 539.375C314.5 538.344 318.5 537.687 322.656 537C324.786 531.797 326.51 526.438 327.813 520.969C328.563 517.844 329.094 515.125 329.5 512.406C337.772 519.362 346.962 525.146 356.813 529.594C358.375 530.281 360.125 531.094 362.25 531.969C374.253 537.068 387.161 539.697 400.203 539.697C413.245 539.697 426.153 537.068 438.156 531.969C440.938 530.812 443.375 529.719 445.344 528.844C455.053 524.305 464.121 518.505 472.313 511.594C473.188 515.594 474.281 519.813 475.438 524.094C476.594 528.375 478.313 533 479.781 537C479.872 536.967 479.972 536.967 480.062 537C484 537.687 487.656 538.375 490.938 539.031C496.563 540.125 501.719 541.281 506.75 542.5Z" fill="#D18C6A"/>
<path opacity="0.2" d="M529.812 548.625C527.25 551.531 524.594 554.375 521.875 557.094C515.796 563.185 509.29 568.835 502.406 574C493.353 580.78 483.471 586.378 473 590.656C466.424 593.334 459.599 595.354 452.625 596.687C446.446 597.864 440.164 598.408 433.875 598.313C421.543 598.1 409.362 595.566 397.969 590.844L395.906 590.031C386.824 586.14 378.216 581.222 370.25 575.375C355.24 564.189 342.007 550.798 331 535.656C329.25 533.25 327.469 530.812 325.781 528.312C326.125 527.219 326.469 526.125 326.781 524.969C327.924 520.857 328.832 516.684 329.5 512.469C331.344 513.969 333.25 515.406 335.094 516.75C340.13 520.421 345.414 523.742 350.906 526.687C351.438 526.937 352 527.281 352.531 527.563L354.5 528.562L356.813 529.656L358.156 530.281C358.656 530.469 358.969 530.687 359.313 530.812L360.75 531.437L362.188 531.969C362.373 532.088 362.572 532.182 362.781 532.25C363.312 532.5 363.875 532.719 364.406 532.906L366.531 533.656C367.281 533.937 368.031 534.219 368.688 534.406L369.25 534.625L370.875 535.094C371.631 535.386 372.403 535.636 373.187 535.844C373.564 535.885 373.932 535.98 374.281 536.125L376.5 536.719C381.095 537.899 385.776 538.714 390.5 539.156C390.994 539.255 391.496 539.307 392 539.312C392.333 539.343 392.667 539.343 393 539.312C393.635 539.346 394.271 539.346 394.906 539.312C395.469 539.312 396.062 539.312 396.625 539.469H400.344C410.573 539.397 420.728 537.72 430.438 534.5H430.625L431.719 534.094C433.75 533.469 435.719 532.656 437.75 531.906L438.312 531.656L440.875 530.562L441.563 530.281C450.604 526.182 459.183 521.133 467.156 515.219C468.875 513.937 470.5 512.625 472.188 511.344C473.063 515.563 474.281 520.094 475.719 524.844C477 529.125 478.375 533.125 479.781 536.875L483.187 537.5L486.594 538.094L489.906 538.719C490.781 538.906 491.594 539.031 492.438 539.25C493.281 539.469 493.5 539.469 494.063 539.594C498.25 540.469 502.469 541.344 506.563 542.375C513.125 543.937 519.656 545.5 526.031 547.469L529.812 548.625Z" fill="black"/>
<path d="M581.031 374.5C580.563 390.562 570.281 406.844 558.813 412.844C557.26 413.634 555.625 414.252 553.938 414.687H553.563C551.514 415.177 549.387 415.24 547.313 414.875C545.055 414.44 542.92 413.511 541.063 412.156C540.758 411.955 540.466 411.736 540.188 411.5C538.903 410.492 537.739 409.338 536.719 408.063C528.438 398.094 525.063 379.375 530.469 364.313C532.686 358.469 536.091 353.148 540.469 348.688C544.139 344.719 548.902 341.925 554.156 340.656C556.568 340.156 559.057 340.156 561.469 340.656C575.156 343.563 581.438 361.094 581.031 374.5Z" fill="#D18C6A"/>
<path opacity="0.3" d="M581.031 374.5C580.563 390.594 570.313 406.812 558.813 412.875C557.248 413.639 555.616 414.256 553.938 414.719H553.531C551.479 415.178 549.358 415.242 547.281 414.906C545.026 414.462 542.894 413.535 541.031 412.187L540.125 411.531C538.871 410.532 537.738 409.389 536.75 408.125C528.375 398.156 525.063 379.406 530.5 364.375C532.709 358.527 536.115 353.205 540.5 348.75C543.256 345.907 546.52 343.607 550.125 341.969C551.408 341.412 552.75 341.003 554.125 340.75C556.546 340.234 559.048 340.234 561.469 340.75C561.839 340.822 562.204 340.916 562.563 341.031C575.531 344.5 581.438 361.469 581.031 374.5Z" fill="black"/>
<path d="M265.875 408.187C264.609 409.724 263.149 411.09 261.531 412.25C259.752 413.545 257.714 414.442 255.557 414.879C253.4 415.316 251.174 415.282 249.031 414.781H248.656C246.964 414.349 245.327 413.72 243.781 412.906C232.312 406.938 222.062 390.656 221.562 374.594C221.156 361.187 227.437 343.656 241.094 340.937C248.844 339.375 256.281 343.125 262.125 349C266.499 353.464 269.904 358.783 272.125 364.625C277.531 379.469 274.125 398.187 265.875 408.187Z" fill="#D18C6A"/>
<path d="M554.125 340.625V340.844C554.125 342.062 554.125 343.344 554.125 344.625C552.61 367.472 547.897 389.994 540.125 411.531C539.25 414.031 538.312 416.531 537.344 419.063C522.687 456.563 499.844 489.469 472.437 511.406C470.75 512.687 469.125 514 467.406 515.281C459.433 521.195 450.854 526.245 441.812 530.344L441.125 530.625L438.562 531.719L438 531.969C435.969 532.719 434 533.531 431.969 534.156L430.875 534.562H430.687C420.978 537.783 410.823 539.459 400.594 539.531H396.875C396.312 539.531 395.719 539.531 395.156 539.375C394.521 539.408 393.885 539.408 393.25 539.375C392.917 539.405 392.583 539.405 392.25 539.375C391.746 539.369 391.244 539.317 390.75 539.219C386.026 538.777 381.345 537.962 376.75 536.781L374.531 536.188C374.182 536.043 373.814 535.948 373.437 535.906C372.653 535.699 371.881 535.449 371.125 535.156L369.5 534.688L368.75 534.375C368.094 534.187 367.344 533.906 366.594 533.625L364.469 532.875C363.937 532.688 363.375 532.469 362.844 532.219C362.635 532.151 362.435 532.056 362.25 531.938L360.812 531.406L359.375 530.781C359.031 530.781 358.719 530.437 358.219 530.25L356.875 529.625L354.562 528.531L352.594 527.531C352.062 527.25 351.5 526.906 350.969 526.656C345.476 523.711 340.193 520.39 335.156 516.719C333.312 515.375 331.406 513.937 329.562 512.437C327.187 510.562 324.875 508.594 322.594 506.531C320.312 504.469 318.031 502.406 315.844 500.281C313.656 498.156 311.375 495.812 309.344 493.5C307.312 491.187 305.062 488.75 303.094 486.281C272.343 447.84 253.565 401.211 249.094 352.187C248.75 349.062 248.562 345.937 248.437 342.625C247.878 331.387 248.213 320.122 249.437 308.938C250 304.375 250.594 299.906 251.406 295.406C252.437 290 253.656 284.5 255.219 278.906C258.811 265.501 263.634 252.456 269.625 239.938C282.719 212.438 301.656 186.562 325.281 168.062C346.875 151.25 372.219 140.625 400.812 140.625C446.906 140.406 485.187 167.5 511.75 203.969C522.598 218.797 531.591 234.895 538.531 251.906C540.281 256.188 541.844 260.469 543.344 264.812C546.72 274.764 549.373 284.947 551.281 295.281C552.031 299.625 552.719 304.062 553.187 308.469C554.355 319.145 554.668 329.898 554.125 340.625Z" fill="#D18C6A"/>
<path opacity="0.2" d="M554.344 340.812C554.063 345.25 553.719 348.844 553.312 352.656C552.719 358.625 552.375 361.531 552.25 361.75C548.5 368 518.813 362.687 475.5 339.531C441.75 321.469 438 314.344 405.344 294.437C356.594 264.844 332.219 249.844 305.344 254.187C262.844 260.969 240.625 307.156 232.688 304.437C241.781 306.406 256.094 258.531 295.188 245.625C334.281 232.719 380.938 260.625 428.906 289.375C443.969 298.406 463.719 312 496.469 326.875C541.625 347.437 550.781 343.156 554.187 341C554.281 340.906 554.281 340.812 554.344 340.812Z" fill="black"/>
<path d="M554.344 340.813C550.937 342.969 541.844 347.25 496.625 326.688C463.875 311.75 444.125 298.156 429.063 289.188C380.969 260.625 334.375 232.781 295.219 245.625C256.063 258.469 241.781 306.406 232.719 304.437L232.156 304.219C225.438 301.094 229.781 272.094 239.719 247.125C254.656 209.625 292.063 156.5 358.469 139.031C372.594 135.344 427.031 121.969 480.156 152.531C532.625 182.75 548.125 233.781 555.156 257.656C557.594 266 575.719 326.5 554.344 340.813Z" fill="#312727"/>
</svg>
