<svg width="761" height="761" viewBox="0 0 761 761" fill="none" xmlns="http://www.w3.org/2000/svg">
<path d="M671.187 624.75C662.113 635.523 652.452 645.788 642.25 655.5C571.679 722.802 477.862 760.279 380.344 760.125C256.844 760.125 164.406 694.5 120.187 655.375C110.246 646.684 100.853 637.385 92.0625 627.531L89.5 624.406C131.844 581.688 188.875 548.531 254.562 529.719C272.75 575.75 322.313 608.438 380.281 608.438C434.156 608.438 480.594 580.313 501.687 539.688C503.281 536.563 504.812 533.438 506.031 530.063L509.625 531.094C573.813 550 629.594 582.75 671.187 624.75Z" fill="#AA392D"/>
<path d="M506.031 529.937C504.719 533.062 503.281 536.375 501.687 539.562C480.594 580.188 434.156 608.312 380.281 608.312C322.313 608.312 272.875 575.563 254.562 529.813L258.719 528.656L260.656 528.094C261.344 528.094 262.125 527.75 262.875 527.531L263.562 527.344C263.562 527.344 269.031 525.875 274.125 524.719C283.794 544.654 298.879 561.464 317.656 573.226C336.432 584.988 358.141 591.226 380.297 591.226C402.453 591.226 424.162 584.988 442.938 573.226C461.714 561.464 476.8 544.654 486.469 524.719C493.173 525.679 499.74 527.431 506.031 529.937Z" fill="#7C211A"/>
<path d="M486.469 524.844C476.792 544.769 461.703 561.569 442.927 573.323C424.152 585.077 402.448 591.31 380.297 591.31C358.146 591.31 336.442 585.077 317.666 573.323C298.891 561.569 283.802 544.769 274.125 524.844C278.344 523.813 282.562 522.844 286.844 522C287.875 521.781 289 521.594 289.969 521.312C290.531 521.312 291.062 521.094 291.562 521.031C292.062 520.969 293.344 520.687 294.25 520.469L297.969 519.844L300.813 519.312H301.094C302.187 516.625 303.219 513.719 304.219 510.531C304.562 509.5 304.906 508.313 305.281 507.219C306.5 502.656 307.406 498.375 308.031 494.719C314.707 500.188 321.909 504.983 329.531 509.031C330.062 509.312 330.625 509.594 331.187 509.937C331.75 510.281 332.5 510.562 333.187 510.906C333.875 511.25 334.719 511.594 335.469 512C336.219 512.406 336.437 512.406 336.844 512.625L338.031 513.187L339.469 513.781L340.844 514.344C341.062 514.344 341.281 514.562 341.469 514.625L343.125 515.25C343.75 515.531 344.531 515.812 345.219 516.062H345.406C346.094 516.344 346.781 516.625 347.625 516.906H348.125C348.656 517.125 349.219 517.25 349.688 517.469C350.156 517.688 351.281 517.969 352.125 518.156C352.469 518.156 352.812 518.375 353.219 518.437L355.437 519.062C360.08 520.181 364.787 521.016 369.531 521.562H370.969H372.031C372.625 521.562 373.344 521.562 373.969 521.562H375.688C376.375 521.562 377 521.562 377.687 521.562H379.406C389.706 521.542 399.934 519.843 409.688 516.531C409.716 516.548 409.748 516.556 409.781 516.556C409.814 516.556 409.847 516.548 409.875 516.531C410.265 516.473 410.644 516.357 411 516.187C413.469 515.375 415.687 514.469 417.625 513.719L420.25 512.594L420.937 512.312C432.096 507.557 442.465 501.13 451.687 493.25C452.656 497.531 453.844 502.094 455.281 506.875C456.594 511.156 457.969 515.156 459.438 518.969C460.531 519.156 461.719 519.312 462.813 519.594C463.906 519.875 465.094 520 466.187 520.219L469.594 520.812L472.062 521.312L473.812 521.656C478.062 522.906 482.125 523.813 486.469 524.844Z" fill="#E59973"/>
<path d="M300.875 150.156C278.278 169.316 260.146 193.186 247.75 220.094C239.234 237.829 233.077 256.603 229.438 275.937C226.71 291.089 225.662 306.494 226.313 321.875C224.052 321.437 221.729 321.437 219.469 321.875C217.375 314.125 215.531 303.125 212.969 289.188C209.844 270.938 208.125 261.813 208.625 251.688C210.155 231.141 217.193 211.386 229 194.5C248.844 167.156 281.75 152.719 300.875 150.156Z" fill="#2D2D2D"/>
<path d="M547.75 289.063C545.281 303.156 543.344 314.063 541.25 321.75C539.062 330.188 536.625 335.094 533.187 336.75C533.719 331.75 534.156 326.844 534.344 321.875C535.085 306.502 534.11 291.094 531.437 275.938C529.572 265.516 526.897 255.256 523.437 245.25C523.906 244.906 524.25 244.625 524.687 244.344L526.062 243.313C526.34 243.139 526.592 242.929 526.812 242.688C532.282 238.424 537.14 233.43 541.25 227.844C542.433 226.284 543.278 224.495 543.73 222.59C544.182 220.685 544.232 218.706 543.875 216.781C548.49 227.866 551.297 239.62 552.187 251.594C552.531 261.781 550.875 270.875 547.75 289.063Z" fill="#2D2D2D"/>
<path opacity="0.2" d="M509.625 530.969C507.063 534.094 504.375 536.781 501.687 539.563C495.547 545.676 488.99 551.357 482.062 556.563C472.943 563.379 463 569.018 452.469 573.344C445.854 576.085 438.988 578.178 431.969 579.594C425.789 580.755 419.506 581.279 413.219 581.156C400.788 580.955 388.504 578.433 377 573.719C376.317 573.455 375.649 573.152 375 572.813C365.846 568.92 357.174 563.981 349.156 558.094C334.016 546.855 320.684 533.366 309.625 518.094C307.844 515.656 306.125 513.187 304.375 510.687C304.719 509.656 305.062 508.469 305.437 507.375C306.656 502.813 307.562 498.531 308.187 494.875C309.969 496.344 311.906 497.781 313.781 499.156C318.856 502.848 324.17 506.199 329.687 509.188C330.219 509.469 330.781 509.75 331.344 510.094C331.906 510.438 332.656 510.719 333.344 511.063C334.031 511.406 334.875 511.75 335.625 512.156C336.375 512.562 336.594 512.563 337 512.781L338.187 513.344L339.625 513.938L341 514.5C341.219 514.5 341.437 514.719 341.625 514.781L343.281 515.406L345.375 516.219H345.563L347.781 517.063H348.281C348.812 517.281 349.375 517.406 349.844 517.625C350.312 517.844 351.437 518.125 352.281 518.313C352.625 518.313 352.969 518.531 353.375 518.594L355.594 519.219C360.224 520.398 364.934 521.233 369.687 521.719H371.125H372.187C372.781 521.719 373.5 521.719 374.125 521.719H375.844C376.531 521.719 377.156 521.719 377.844 521.719H379.562C389.857 521.628 400.073 519.931 409.844 516.688C409.872 516.704 409.905 516.713 409.937 516.713C409.97 516.713 410.003 516.704 410.031 516.688C410.421 516.629 410.8 516.514 411.156 516.344C413.219 515.656 415.219 514.906 417.219 514.063L417.844 513.875L420.406 512.75L421.094 512.469C430.182 508.334 438.803 503.242 446.812 497.281C448.531 496.031 450.187 494.719 451.844 493.406C452.812 497.688 454 502.25 455.438 507.031C456.75 511.313 458.125 515.313 459.594 519.125C460.687 519.313 461.875 519.469 462.969 519.75C464.062 520.031 465.25 520.156 466.344 520.375L469.75 520.969L472.219 521.469L473.969 521.813C478.187 522.719 482.375 523.625 486.469 524.656C493.031 526.156 499.625 527.781 506.031 529.75L509.625 530.969Z" fill="black"/>
<path d="M561.219 355.719C560.719 371.906 550.406 388.281 538.844 394.312C537.283 395.118 535.638 395.747 533.937 396.187H533.594C531.495 396.695 529.316 396.77 527.187 396.406C524.931 395.947 522.8 395.009 520.937 393.656L520.062 393C518.775 391.984 517.601 390.831 516.563 389.562C508.25 379.5 504.844 360.656 510.313 345.625C512.558 339.781 515.983 334.462 520.375 330C524.083 326.025 528.874 323.222 534.156 321.937C536.588 321.422 539.1 321.422 541.531 321.937C555.312 324.594 561.656 342.219 561.219 355.719Z" fill="#E59973"/>
<path opacity="0.3" d="M561.219 355.719C560.719 371.906 550.406 388.281 538.844 394.312C537.283 395.118 535.638 395.747 533.937 396.187H533.594C531.495 396.695 529.316 396.77 527.187 396.406C524.931 395.947 522.8 395.009 520.937 393.656L520.062 393C518.775 391.984 517.601 390.831 516.563 389.562C508.25 379.5 504.844 360.656 510.313 345.625C512.558 339.781 515.983 334.462 520.375 330C524.083 326.025 528.874 323.222 534.156 321.937C536.588 321.422 539.1 321.422 541.531 321.937C555.312 324.594 561.656 342.219 561.219 355.719Z" fill="black"/>
<path d="M243.938 389.594C242.806 391.018 241.505 392.298 240.063 393.406C240.063 393.406 239.719 393.625 239.594 393.75C237.733 395.094 235.599 396.012 233.344 396.437C231.269 396.797 229.143 396.733 227.094 396.25C226.963 396.298 226.819 396.298 226.688 396.25C225.01 395.815 223.386 395.196 221.844 394.406C210.219 388.375 199.969 372 199.438 355.844C199.031 342.281 205.313 324.594 219.063 321.906C219.228 321.876 219.397 321.876 219.563 321.906C221.823 321.468 224.146 321.468 226.406 321.906C231.721 323.151 236.535 325.972 240.219 330C241.01 330.786 241.751 331.621 242.438 332.5C245.789 336.419 248.452 340.878 250.313 345.687C255.688 360.719 252.313 379.594 243.938 389.594Z" fill="#E59973"/>
<path d="M534.156 321.875C533.969 326.844 533.531 331.75 533 336.75C530.844 355.937 526.481 374.812 520 393C505.469 433.625 481.094 469.906 451.719 493.531C450.063 494.844 448.406 496.156 446.688 497.406C438.678 503.367 430.056 508.459 420.969 512.594L420.281 512.875L417.719 514L417.094 514.188C415.094 515.031 413.094 515.781 411.031 516.469C410.675 516.639 410.296 516.754 409.906 516.812C409.878 516.829 409.845 516.838 409.812 516.838C409.78 516.838 409.747 516.829 409.719 516.812C399.948 520.056 389.732 521.753 379.437 521.844H377.719C377.031 521.844 376.406 521.844 375.719 521.844H374C373.375 521.844 372.656 521.844 372.062 521.844H371H369.563C364.809 521.358 360.099 520.523 355.469 519.344L353.25 518.719C352.844 518.719 352.5 518.5 352.156 518.438C351.313 518.25 350.562 517.969 349.719 517.75C348.875 517.531 348.687 517.406 348.156 517.187H347.656L345.438 516.344H345.25L343.156 515.531L341.5 514.906C341.312 514.906 341.094 514.688 340.875 514.625L339.5 514.062L338.063 513.469L336.875 512.906C336.469 512.687 335.969 512.5 335.5 512.281C335.031 512.063 333.906 511.531 333.219 511.187C332.531 510.844 331.844 510.469 331.219 510.219C330.594 509.969 330.094 509.594 329.562 509.313C324.045 506.324 318.731 502.973 313.656 499.281C311.781 497.906 309.844 496.469 308.063 495C298.258 487.099 289.294 478.208 281.312 468.469C263.23 446.248 249.26 420.976 240.062 393.844C239.594 392.75 239.25 391.562 238.812 390.375C233.058 373.136 229.192 355.323 227.281 337.25C227.281 336.094 227 334.844 226.937 333.687C226.656 330.562 226.375 327.437 226.25 324.062C226.25 323.5 226.25 323.031 226.25 322.469C225.6 307.088 226.648 291.682 229.375 276.531C232.985 256.991 239.163 238.014 247.75 220.094C260.146 193.186 278.278 169.316 300.875 150.156L303.781 147.813C325.339 130.325 352.151 120.595 379.906 120.188C410.25 120.187 437.219 131.719 459.719 150.094C471.721 160 482.402 171.406 491.5 184.031C502.374 198.959 511.398 215.15 518.375 232.25C520.156 236.531 521.75 240.906 523.219 245.25C526.678 255.256 529.353 265.516 531.219 275.937C533.902 291.093 534.887 306.501 534.156 321.875Z" fill="#E59973"/>
<path opacity="0.2" d="M552 251.594C548.973 255.019 545.635 258.157 542.031 260.969C541.75 261.25 540.438 262.219 538.719 263.531C535.875 265.531 533 267.531 530 269.469C495.883 291.759 456.003 303.608 415.25 303.563C378.415 303.669 342.202 294.077 310.25 275.75C303.786 271.914 297.527 267.741 291.5 263.25C289.438 261.75 287.406 260.125 285.25 258.625C279.892 254.441 274.75 249.988 269.844 245.281C267.563 243.062 265.281 240.781 263.063 238.437C260.188 235.312 257.344 232.187 254.656 229.062C253.527 227.737 252.657 226.21 252.094 224.563C257.698 230.115 263.625 235.332 269.844 240.188C277.776 246.403 286.13 252.063 294.844 257.125C329.999 277.411 370.281 287.071 410.813 284.935C451.345 282.8 490.389 268.961 523.219 245.094C523.687 244.75 524.031 244.469 524.469 244.188L525.844 243.156C526.121 242.983 526.373 242.773 526.594 242.531C532.064 238.268 536.922 233.273 541.031 227.688C542.215 226.128 543.06 224.338 543.512 222.433C543.964 220.528 544.013 218.55 543.656 216.625C548.299 227.757 551.116 239.565 552 251.594Z" fill="black"/>
<path d="M541.062 227.844C536.953 233.43 532.095 238.424 526.625 242.687C526.405 242.929 526.152 243.139 525.875 243.313L524.5 244.344C524.062 244.625 523.719 244.906 523.25 245.25C490.386 269.037 451.351 282.826 410.838 284.96C370.324 287.094 330.057 277.483 294.875 257.281C286.161 252.219 277.808 246.559 269.875 240.344C263.657 235.489 257.73 230.271 252.125 224.719C250.594 223.187 249 221.594 247.625 220.156C244.719 217.031 241.969 214.094 239.281 210.781C237.122 208.2 235.94 204.943 235.94 201.578C235.94 198.213 237.122 194.956 239.281 192.375C250.667 178.915 263.695 166.936 278.062 156.719C282 153.906 286.083 151.219 290.313 148.656C323.234 128.508 361.09 117.865 399.687 117.906C409.594 117.906 436.875 117.906 461.75 127.281C488.437 137.25 507.719 156.187 521.125 174.687C529.85 186.87 537.138 200.019 542.844 213.875C543.252 214.822 543.525 215.821 543.656 216.844C544.008 218.757 543.96 220.722 543.513 222.616C543.067 224.509 542.232 226.289 541.062 227.844Z" fill="#2D2D2D"/>
</svg>
